<mxfile host="app.diagrams.net" modified="2023-11-04T02:37:25.405Z" agent="Mozilla/5.0 (Macintosh; Intel Mac OS X 10_15_7) AppleWebKit/537.36 (KHTML, like Gecko) Chrome/117.0.0.0 Safari/537.36" version="22.0.8" etag="MEFv1r0pe3DCiuLqC0g6" type="github">
  <diagram name="第 1 页" id="Z0SkzCT3hr3zryE5ZIYy">
    <mxGraphModel>
      <root>
        <mxCell id="0" />
        <mxCell id="1" parent="0" />
      </root>
    </mxGraphModel>
  </diagram>
</mxfile>
